<svg id="Camada_1" data-name="Camada 1" xmlns="http://www.w3.org/2000/svg" viewBox="0 0 327.02 93.71"><defs><style>.cls-1{fill:#1c75bb;}</style></defs><path class="cls-1" d="M153.44,40.05a1.09,1.09,0,1,0,1,1.08A1.06,1.06,0,0,0,153.44,40.05Zm-8.45.58-.88-.1c-.26,0-.38.07-.38.47v7.7c0,.23.09.34.32.34h.89c.26,0,.37-.09.37-.35V45.84h8.62c.27,0,.34,0,.34-.32V44.18c0-.26-.07-.32-.36-.32h-8.6V41.11C145.31,40.83,145.25,40.66,145,40.63ZM23.56,93.71A23.35,23.35,0,0,0,34.8,90.84l.19.48-1,.84v.69H47.11v-46H23.56V58.59h8.22V70.07a8.23,8.23,0,0,1-16.45,0V23.56a8.23,8.23,0,0,1,16.45,0V39.84H47.11V24.41C47.11,11.42,36.54,0,23.56,0A23.59,23.59,0,0,0,0,23.56V70.15A23.59,23.59,0,0,0,23.56,93.71ZM144.75,34.82a.52.52,0,0,0,.19-.06l.77-.35a.32.32,0,0,0,.22-.27.48.48,0,0,0-.07-.23,4.59,4.59,0,0,1-.67-2.2,1.37,1.37,0,0,1,1.4-1.56c.88,0,1.87.73,3.08,1.88.88.86,1.79,1.91,2.75,2.85a.74.74,0,0,0,.64.28h.73c.35,0,.48-.11.48-.48v-6c0-.32-.16-.44-.45-.44H153c-.29,0-.38.14-.38.44v4c-.43-.44-.92-1-1.42-1.51-1.49-1.58-3-3.09-4.75-3.09-1.91,0-2.94,1.42-2.94,3.31a6,6,0,0,0,.9,3.13A.38.38,0,0,0,144.75,34.82ZM145,58.24l-.91-.1H144c-.16,0-.25.07-.25.32V64.2c0,.24.13.35.38.35h9.74c.34,0,.42-.11.42-.41V58.49a.32.32,0,0,0-.37-.37H153c-.24,0-.35.12-.35.38v4.08h-3V59.05c0-.26-.11-.37-.37-.37h-.87c-.21,0-.33.1-.33.38v3.52h-2.76V58.76C145.31,58.44,145.26,58.27,145,58.24Zm4-31.39c2.88,0,5.41-1.05,5.41-3.77s-2.61-3.76-5.49-3.76-5.43,1-5.43,3.73S146.18,26.85,149,26.85ZM149,21.36c2.26,0,3.78.41,3.78,1.72s-1.51,1.73-3.78,1.73-3.74-.5-3.74-1.76S146.65,21.36,149,21.36Zm-2.55,35.37A2.91,2.91,0,0,0,149,54.94l1-2c.29-.6.67-1.12,1.37-1.12,1,0,1.35.93,1.35,1.76a7.1,7.1,0,0,1-.45,2.27.52.52,0,0,0,0,.22c0,.16.09.23.24.28l1,.32a.51.51,0,0,0,.2,0c.12,0,.21-.06.29-.26a9.3,9.3,0,0,0,.49-2.91c0-2-1.14-3.7-3.26-3.7a3,3,0,0,0-2.79,2l-.82,1.7c-.24.5-.61,1.08-1.23,1.08-.86,0-1.16-.83-1.16-1.54a5.7,5.7,0,0,1,.47-2,.82.82,0,0,0,.06-.25c0-.1-.06-.19-.23-.25l-.93-.37a.49.49,0,0,0-.19,0c-.13,0-.22.11-.31.31a6.54,6.54,0,0,0-.53,2.72C143.53,54.91,144.55,56.73,146.41,56.73Zm-2.17-48h4.21c.38,0,.58-.14.58-.52V6.94a3,3,0,0,1,.57-2A1.86,1.86,0,0,1,151,4.34a1.77,1.77,0,0,1,1.79,1.93,4.62,4.62,0,0,1-.56,2.24.57.57,0,0,0-.09.26c0,.12.09.2.21.26l.81.35a.46.46,0,0,0,.23.06c.12,0,.23-.09.32-.26a6,6,0,0,0,.7-2.81c0-2.24-1.27-4-3.51-4s-3.36,1.94-3.36,4.14v.27h-2.21V3.29c0-.32-.14-.43-.43-.43h-.79c-.3,0-.42.14-.42.44V8.24C143.73,8.57,143.85,8.73,144.24,8.73Zm1.45,8.74c.11.18.2.24.34.24a.3.3,0,0,0,.19-.06l.69-.35a.38.38,0,0,0,.26-.32.54.54,0,0,0-.09-.26l-1.21-2.11h7.95c.37,0,.45-.09.45-.49v-1c0-.34-.11-.47-.46-.47h-9.7c-.28,0-.38.13-.38.38v.73a1.15,1.15,0,0,0,.16.68ZM252.24,46.85l21.21-46H257.2L238.11,40.8V.86H222.78v92h15.33l-.05-40,23.56,40h16.24ZM327,70.15V24.41C327,11.42,316.45,0,303.47,0a23.59,23.59,0,0,0-23.56,23.56V70.15a23.56,23.56,0,1,0,47.11,0Zm-31.78-.08V23.56a8.23,8.23,0,0,1,16.45,0V70.07a8.23,8.23,0,0,1-16.45,0Zm-138.5,7.45H128.39V.86H113.06v92h43.68ZM80.09,0A23.59,23.59,0,0,0,56.53,23.56V70.15a23.56,23.56,0,1,0,47.11,0V24.41C103.64,11.42,93.08,0,80.09,0Zm0,78.29a8.23,8.23,0,0,1-8.23-8.22V23.56a8.23,8.23,0,0,1,16.45,0V70.07A8.23,8.23,0,0,1,80.09,78.29ZM189.8.86H166.16v92H189.8A23.58,23.58,0,0,0,213.36,69.3V24.41A23.58,23.58,0,0,0,189.8.86ZM198,69.3a8.23,8.23,0,0,1-8.23,8.22h-8.31V16.19h8.31A8.23,8.23,0,0,1,198,24.41Z"/></svg>